<svg width="20" height="20" viewBox="0 0 20 20" fill="none" xmlns="http://www.w3.org/2000/svg">
<path d="M14.4805 0H5.51913C2.47588 0 0 2.476 0 5.51924V14.4806C0 17.524 2.47588 19.9999 5.51913 19.9999H14.4805C17.524 19.9999 19.9999 17.5239 19.9999 14.4806V5.51924C20 2.476 17.524 0 14.4805 0ZM18.2255 14.4806C18.2255 16.5455 16.5455 18.2254 14.4806 18.2254H5.51913C3.45433 18.2255 1.77449 16.5455 1.77449 14.4806V5.51924C1.77449 3.45445 3.45433 1.77449 5.51913 1.77449H14.4805C16.5454 1.77449 18.2254 3.45445 18.2254 5.51924V14.4806H18.2255Z" fill="white"/>
<path d="M9.00869 6.93668C9.00869 7.18869 9.00869 8.31349 9.00869 8.31349H8V9.99705H9.00869V15H11.0807V9.99719H12.4712C12.4712 9.99719 12.6014 9.18993 12.6645 8.30728C12.4836 8.30728 11.0886 8.30728 11.0886 8.30728C11.0886 8.30728 11.0886 7.32784 11.0886 7.15616C11.0886 6.98411 11.3145 6.75268 11.5378 6.75268C11.7607 6.75268 12.231 6.75268 12.6667 6.75268C12.6667 6.52346 12.6667 5.73146 12.6667 5C12.0851 5 11.4234 5 11.1318 5C8.95747 4.99988 9.00869 6.68512 9.00869 6.93668Z" fill="white"/>
</svg>
