<svg width="20" height="20" viewBox="0 0 20 20" fill="none" xmlns="http://www.w3.org/2000/svg">
<path d="M14.4805 0H5.51913C2.47588 0 0 2.476 0 5.51924V14.4806C0 17.524 2.47588 19.9999 5.51913 19.9999H14.4805C17.524 19.9999 19.9999 17.5239 19.9999 14.4806V5.51924C20 2.476 17.524 0 14.4805 0ZM18.2255 14.4806C18.2255 16.5455 16.5455 18.2254 14.4806 18.2254H5.51913C3.45433 18.2255 1.77449 16.5455 1.77449 14.4806V5.51924C1.77449 3.45445 3.45433 1.77449 5.51913 1.77449H14.4805C16.5454 1.77449 18.2254 3.45445 18.2254 5.51924V14.4806H18.2255Z" fill="white"/>
<path d="M11.1863 10.8535C10.8611 10.6642 10.4092 10.6642 10.0421 10.6642H8.83637V13.1487H9.94298C10.3526 13.1487 10.8751 13.1781 11.2283 12.93C11.5526 12.7118 11.7362 12.2833 11.7362 11.8754C11.7362 11.4964 11.5106 11.043 11.1863 10.8535ZM10.7314 8.73178C10.9997 8.52749 11.1404 8.16326 11.1404 7.82778C11.1404 7.46335 10.9712 7.11349 10.6609 6.9242C10.3361 6.7349 9.7427 6.77864 9.36158 6.77864H8.83637V8.96523H9.53122C9.9265 8.96501 10.3928 8.99417 10.7314 8.73178ZM10.6433 15H6.5V5H11.027C12.3383 5 13.5482 5.83471 13.5482 7.30701C13.5482 8.44382 12.9136 9.22233 12.104 9.46423V9.4936C13.3044 9.74162 14.1617 10.3936 14.1617 11.9665C14.1617 13.4221 13.1705 15 10.6433 15Z" fill="white"/>
</svg>
