<svg width="39" height="29" viewBox="0 0 39 29" fill="none" xmlns="http://www.w3.org/2000/svg">
<path d="M3.46185 14.797C3.46185 14.7391 3.46039 14.6812 3.45748 14.6233C3.44294 14.3345 3.48454 13.5358 3.77247 12.5885C4.05444 11.6607 4.51506 10.7787 5.19057 10.1078C6.27495 9.0308 7.55529 7.7891 8.74916 6.6424C9.44618 7.27701 10.3914 7.75286 11.57 7.81818C15.0492 8.29513 17.6985 11.2572 17.6985 14.797C17.6985 18.6661 14.5339 21.843 10.5802 21.843H10.1185C9.54261 21.843 8.39092 22.1885 8.39092 23.5706C8.39092 24.1464 8.73643 25.2981 10.1185 25.2981H10.5802C16.4197 25.2981 21.1536 20.5966 21.1536 14.797C21.1536 9.42389 17.0903 4.9933 11.849 4.37077C11.6213 4.37077 11.432 4.31895 11.2752 4.23276C11.1612 4.17014 11.0645 4.08936 10.9828 3.99712C10.6755 3.65028 10.5802 3.14135 10.5802 2.82578V1.14561C10.5802 0.305519 10.0163 0.655555 9.7343 0.935586C9.66502 1.00077 9.59058 1.07089 9.51136 1.14561C9.05582 1.57522 8.44238 2.15642 7.74561 2.82068L7.74025 2.82578C7.55088 3.00632 7.35537 3.19298 7.15523 3.38438C5.74489 4.73306 4.10417 6.31719 2.75585 7.65628C0.387405 10.0085 -0.0637275 13.3969 0.00676358 14.797C0.00676358 15.7692 0.139767 16.7104 0.388687 17.6039C0.505916 18.0298 0.987165 18.8815 1.97433 18.8815C2.56817 18.8815 3.70187 18.6347 3.77247 17.1154C3.76604 17.0164 3.74291 16.7778 3.70187 16.616C3.54524 16.035 3.46185 15.4251 3.46185 14.797Z" fill="#E53654"/>
<path d="M5.08391 23.4225C6.038 23.4225 6.81145 22.6491 6.81145 21.695C6.81145 20.7409 6.038 19.9674 5.08391 19.9674C4.12981 19.9674 3.35636 20.7409 3.35636 21.695C3.35636 22.6491 4.12981 23.4225 5.08391 23.4225Z" fill="#E53654"/>
<path d="M35.4607 14.8219C35.4607 14.8799 35.4622 14.9378 35.4651 14.9957C35.4797 15.2844 35.4381 16.0832 35.1501 17.0305C34.8681 17.9582 34.4075 18.8403 33.732 19.5112C32.6476 20.5882 31.3673 21.8299 30.1734 22.9766C29.4764 22.342 28.5312 21.8661 27.3526 21.8008C23.8734 21.3238 21.2241 18.3617 21.2241 14.8219C21.2241 10.9528 24.3887 7.77592 28.3424 7.77592H28.8041C29.38 7.77592 30.5317 7.43041 30.5317 6.04838C30.5317 5.47253 30.1862 4.32084 28.8041 4.32084H28.3424C22.5029 4.32084 17.769 9.02234 17.769 14.8219C17.769 20.1951 21.8323 24.6257 27.0736 25.2482C27.3013 25.2482 27.4906 25.3 27.6474 25.3862C27.7614 25.4488 27.8581 25.5296 27.9398 25.6218C28.2471 25.9687 28.3424 26.4776 28.3424 26.7932V28.4734C28.3424 29.3134 28.9063 28.9634 29.1883 28.6834C29.2576 28.6182 29.332 28.5481 29.4112 28.4734C29.8668 28.0437 30.4802 27.4625 31.177 26.7983L31.1823 26.7932C31.3717 26.6126 31.5672 26.426 31.7674 26.2346C33.1777 24.8859 34.8184 23.3018 36.1667 21.9627C38.5352 19.6104 38.9863 16.2221 38.9158 14.8219C38.9158 13.8498 38.7828 12.9085 38.5339 12.0151C38.4167 11.5892 37.9354 10.7374 36.9483 10.7374C36.3544 10.7374 35.2207 10.9842 35.1501 12.5035C35.1566 12.6026 35.1797 12.8411 35.2207 13.003C35.3773 13.584 35.4607 14.1938 35.4607 14.8219Z" fill="#5AD5A1"/>
<path d="M33.8387 6.19645C32.8846 6.19645 32.1111 6.9699 32.1111 7.92399C32.1111 8.87809 32.8846 9.65153 33.8387 9.65153C34.7928 9.65153 35.5662 8.87809 35.5662 7.92399C35.5662 6.9699 34.7928 6.19645 33.8387 6.19645Z" fill="#5AD5A1"/>
<path d="M15.7947 14.6445L10.4314 18.7701C9.67513 19.3518 8.5905 19.2104 8.00877 18.4541C7.42705 17.6979 7.56852 16.6132 8.32476 16.0315L14.7119 11.1183C14.8197 11.0315 14.9362 10.9592 15.0585 10.9017C15.5189 10.6854 16.0619 10.6792 16.534 10.9032C16.6551 10.9604 16.7704 11.0322 16.8772 11.1182L22.2112 15.2213L27.5745 11.0957C28.3308 10.514 29.4154 10.6554 29.9971 11.4117C30.5788 12.1679 30.4374 13.2525 29.6811 13.8343L23.2941 18.7473C23.1863 18.8342 23.0696 18.9066 22.9471 18.9642C22.713 19.0747 22.4614 19.1286 22.2112 19.1284C21.9611 19.1286 21.7095 19.0747 21.4753 18.9642C21.3529 18.9066 21.2362 18.8342 21.1283 18.7473L15.7947 14.6445Z" fill="white"/>
</svg>
