<svg width="243" height="30" viewBox="0 0 243 30" fill="none" xmlns="http://www.w3.org/2000/svg">
<path d="M63.1076 6.92991C63.7236 6.92991 64.233 7.13129 64.6357 7.53406C65.0385 7.93682 65.2399 8.45805 65.2399 9.09773V24.1303C65.2399 24.7463 65.0385 25.2675 64.6357 25.694C64.233 26.0967 63.7236 26.2981 63.1076 26.2981C62.4916 26.2981 61.9822 26.0967 61.5795 25.694C61.2004 25.2912 60.999 24.7818 60.9753 24.1658C60.383 24.8529 59.5775 25.4452 58.5587 25.9427C57.5637 26.4166 56.5094 26.6535 55.3958 26.6535C53.7611 26.6535 52.2803 26.2389 50.9536 25.4097C49.6268 24.5568 48.5725 23.384 47.7907 21.8914C47.0326 20.3988 46.6535 18.7048 46.6535 16.8095C46.6535 14.9141 47.0326 13.2201 47.7907 11.7275C48.5488 10.2113 49.5795 9.0385 50.8825 8.20928C52.2093 7.35637 53.6663 6.92991 55.2537 6.92991C56.3909 6.92991 57.457 7.14314 58.4521 7.5696C59.4472 7.97236 60.2882 8.49358 60.9753 9.13327V9.09773C60.9753 8.48174 61.1767 7.97236 61.5795 7.5696C61.9822 7.14314 62.4916 6.92991 63.1076 6.92991ZM55.9289 22.7443C57.4689 22.7443 58.7246 22.1876 59.6959 21.074C60.6673 19.9368 61.153 18.5153 61.153 16.8095C61.153 15.1037 60.6673 13.6821 59.6959 12.5449C58.7246 11.4077 57.4689 10.8391 55.9289 10.8391C54.4126 10.8391 53.1688 11.4077 52.1974 12.5449C51.226 13.6821 50.7404 15.1037 50.7404 16.8095C50.7404 18.5153 51.2142 19.9368 52.1619 21.074C53.1333 22.1876 54.3889 22.7443 55.9289 22.7443Z" fill="white"/>
<path d="M79.7055 6.92991C81.3403 6.92991 82.821 7.35637 84.1478 8.20928C85.4745 9.0385 86.517 10.1994 87.2751 11.692C88.0569 13.1846 88.4479 14.8786 88.4479 16.7739C88.4479 18.6693 88.0688 20.3751 87.3106 21.8914C86.5525 23.384 85.5101 24.5568 84.1833 25.4097C82.8802 26.2389 81.435 26.6535 79.8477 26.6535C78.7104 26.6535 77.6325 26.4284 76.6137 25.9783C75.6186 25.5044 74.7894 24.9358 74.126 24.2725V24.4857C74.126 25.1017 73.9247 25.6229 73.5219 26.0494C73.1191 26.4521 72.6098 26.6535 71.9938 26.6535C71.3778 26.6535 70.8684 26.4521 70.4656 26.0494C70.0629 25.6466 69.8615 25.1254 69.8615 24.4857V2.16782C69.8615 1.55183 70.0629 1.04245 70.4656 0.639682C70.8684 0.213227 71.3778 0 71.9938 0C72.6098 0 73.1191 0.213227 73.5219 0.639682C73.9247 1.04245 74.126 1.55183 74.126 2.16782V9.59526C74.6946 8.8845 75.4883 8.26851 76.5071 7.74729C77.5258 7.20237 78.592 6.92991 79.7055 6.92991ZM79.1724 22.7443C80.6887 22.7443 81.9326 22.1757 82.9039 21.0385C83.8753 19.9013 84.361 18.4798 84.361 16.7739C84.361 15.0681 83.8753 13.6584 82.9039 12.5449C81.9563 11.4077 80.7124 10.8391 79.1724 10.8391C77.6325 10.8391 76.3768 11.4077 75.4054 12.5449C74.434 13.6584 73.9483 15.0681 73.9483 16.7739C73.9483 18.4798 74.434 19.9013 75.4054 21.0385C76.3768 22.1757 77.6325 22.7443 79.1724 22.7443Z" fill="white"/>
<path d="M110.27 16.8095C110.27 18.7048 109.843 20.4107 108.991 21.927C108.138 23.4196 106.965 24.5805 105.472 25.4097C104.003 26.2389 102.38 26.6535 100.604 26.6535C98.8029 26.6535 97.1682 26.2389 95.6993 25.4097C94.2304 24.5805 93.0695 23.4196 92.2166 21.927C91.3636 20.4107 90.9372 18.7048 90.9372 16.8095C90.9372 14.9141 91.3636 13.2201 92.2166 11.7275C93.0695 10.2113 94.2304 9.0385 95.6993 8.20928C97.1682 7.35637 98.8029 6.92991 100.604 6.92991C102.38 6.92991 104.003 7.35637 105.472 8.20928C106.965 9.0385 108.138 10.2113 108.991 11.7275C109.843 13.2201 110.27 14.9141 110.27 16.8095ZM106.005 16.8095C106.005 15.6486 105.757 14.618 105.259 13.7177C104.785 12.7937 104.134 12.0829 103.304 11.5854C102.499 11.0879 101.599 10.8391 100.604 10.8391C99.6085 10.8391 98.6963 11.0879 97.8671 11.5854C97.0616 12.0829 96.41 12.7937 95.9125 13.7177C95.4387 14.618 95.2018 15.6486 95.2018 16.8095C95.2018 17.9704 95.4387 19.001 95.9125 19.9013C96.41 20.8016 97.0616 21.5005 97.8671 21.998C98.6963 22.4956 99.6085 22.7443 100.604 22.7443C101.599 22.7443 102.499 22.4956 103.304 21.998C104.134 21.5005 104.785 20.8016 105.259 19.9013C105.757 19.001 106.005 17.9704 106.005 16.8095Z" fill="white"/>
<path d="M127.941 7.28529C128.557 7.28529 129.067 7.49852 129.47 7.92498C129.872 8.32774 130.074 8.83712 130.074 9.45311V18.4798C130.074 21.0385 129.363 23.0405 127.941 24.4857C126.544 25.9309 124.542 26.6535 121.936 26.6535C119.329 26.6535 117.327 25.9309 115.93 24.4857C114.532 23.0405 113.833 21.0385 113.833 18.4798V9.45311C113.833 8.83712 114.034 8.32774 114.437 7.92498C114.84 7.49852 115.349 7.28529 115.965 7.28529C116.581 7.28529 117.09 7.49852 117.493 7.92498C117.896 8.32774 118.097 8.83712 118.097 9.45311V18.4798C118.097 19.925 118.417 21.003 119.057 21.7137C119.697 22.4008 120.656 22.7443 121.936 22.7443C123.239 22.7443 124.21 22.4008 124.85 21.7137C125.489 21.003 125.809 19.925 125.809 18.4798V9.45311C125.809 8.83712 126.011 8.32774 126.413 7.92498C126.816 7.49852 127.325 7.28529 127.941 7.28529Z" fill="white"/>
<path d="M143.859 22.2823C144.191 22.2823 144.487 22.4482 144.748 22.7799C145.032 23.0879 145.174 23.5025 145.174 24.0237C145.174 24.6634 144.819 25.2083 144.108 25.6584C143.421 26.0849 142.639 26.2981 141.763 26.2981C140.294 26.2981 139.05 25.9901 138.031 25.3741C137.036 24.7345 136.539 23.3959 136.539 21.3583V11.5499H134.904C134.335 11.5499 133.861 11.3603 133.482 10.9812C133.103 10.6022 132.914 10.1283 132.914 9.55972C132.914 9.01481 133.103 8.56466 133.482 8.20928C133.861 7.83021 134.335 7.64067 134.904 7.64067H136.539V5.36624C136.539 4.75025 136.74 4.24087 137.143 3.8381C137.569 3.41165 138.09 3.19842 138.706 3.19842C139.299 3.19842 139.796 3.41165 140.199 3.8381C140.602 4.24087 140.803 4.75025 140.803 5.36624V7.64067H143.326C143.895 7.64067 144.369 7.83021 144.748 8.20928C145.127 8.58835 145.316 9.06219 145.316 9.6308C145.316 10.1757 145.127 10.6377 144.748 11.0168C144.369 11.3722 143.895 11.5499 143.326 11.5499H140.803V21.1807C140.803 21.6782 140.933 22.0454 141.194 22.2823C141.455 22.4956 141.81 22.6022 142.26 22.6022C142.45 22.6022 142.71 22.5548 143.042 22.46C143.326 22.3416 143.599 22.2823 143.859 22.2823Z" fill="white"/>
<path d="M158.365 7.71175C159.929 7.71175 161.35 8.11451 162.63 8.92004C163.909 9.72557 164.904 10.8509 165.615 12.2962C166.35 13.7177 166.717 15.3287 166.717 17.1293C166.717 18.9062 166.35 20.5291 165.615 21.998C164.904 23.4432 163.909 24.5805 162.63 25.4097C161.374 26.2389 159.965 26.6535 158.401 26.6535C157.05 26.6535 155.795 26.3218 154.634 25.6584C153.497 24.9714 152.573 24.0711 151.862 22.9576V25.3031C151.862 25.6111 151.755 25.8717 151.542 26.0849C151.352 26.2981 151.104 26.4047 150.796 26.4047C150.488 26.4047 150.227 26.2981 150.014 26.0849C149.824 25.8717 149.73 25.6111 149.73 25.3031V1.10168C149.73 0.79368 149.824 0.544915 150.014 0.35538C150.227 0.142152 150.488 0.0355373 150.796 0.0355373C151.104 0.0355373 151.352 0.142152 151.542 0.35538C151.755 0.544915 151.862 0.79368 151.862 1.10168V11.5854C152.502 10.4245 153.402 9.48865 154.563 8.77789C155.724 8.06713 156.991 7.71175 158.365 7.71175ZM158.188 24.6634C159.42 24.6634 160.521 24.3317 161.493 23.6683C162.488 23.0049 163.258 22.1046 163.803 20.9674C164.371 19.8065 164.656 18.5272 164.656 17.1293C164.656 15.7078 164.371 14.4403 163.803 13.3268C163.258 12.1895 162.488 11.3011 161.493 10.6614C160.521 10.0217 159.42 9.70188 158.188 9.70188C156.932 9.70188 155.807 10.0217 154.811 10.6614C153.816 11.2774 153.046 12.154 152.502 13.2912C151.957 14.4284 151.684 15.7078 151.684 17.1293C151.684 18.5508 151.957 19.8421 152.502 21.003C153.07 22.1402 153.84 23.0405 154.811 23.7039C155.807 24.3435 156.932 24.6634 158.188 24.6634Z" fill="white"/>
<path d="M179.601 7.71175C180.075 7.71175 180.502 7.80652 180.881 7.99605C181.26 8.18559 181.449 8.46989 181.449 8.84896C181.449 9.18065 181.355 9.45311 181.165 9.66634C180.976 9.85588 180.751 9.95064 180.49 9.95064C180.371 9.95064 180.135 9.89141 179.779 9.77295C179.447 9.65449 179.128 9.59526 178.82 9.59526C177.943 9.59526 177.066 9.9388 176.19 10.6259C175.337 11.2892 174.626 12.154 174.058 13.2201C173.513 14.2863 173.24 15.3643 173.24 16.4541V25.232C173.24 25.54 173.134 25.8006 172.92 26.0138C172.731 26.2034 172.482 26.2981 172.174 26.2981C171.866 26.2981 171.605 26.2034 171.392 26.0138C171.203 25.8006 171.108 25.54 171.108 25.232V9.31096C171.108 9.00296 171.203 8.7542 171.392 8.56466C171.605 8.35143 171.866 8.24482 172.174 8.24482C172.482 8.24482 172.731 8.35143 172.92 8.56466C173.134 8.7542 173.24 9.00296 173.24 9.31096V12.4383C173.785 11.0879 174.602 9.97433 175.692 9.09773C176.806 8.19743 178.109 7.73544 179.601 7.71175Z" fill="white"/>
<path d="M199.114 8.1382C199.422 8.1382 199.67 8.24482 199.86 8.45805C200.073 8.67128 200.18 8.93189 200.18 9.23988V25.232C200.18 25.54 200.073 25.8006 199.86 26.0138C199.67 26.2034 199.422 26.2981 199.114 26.2981C198.806 26.2981 198.545 26.2034 198.332 26.0138C198.142 25.8006 198.047 25.54 198.047 25.232V22.8509C197.455 23.9171 196.567 24.8174 195.382 25.5518C194.197 26.2863 192.906 26.6535 191.508 26.6535C189.921 26.6535 188.488 26.2389 187.208 25.4097C185.953 24.5805 184.958 23.4432 184.223 21.998C183.512 20.5528 183.157 18.9299 183.157 17.1293C183.157 15.3287 183.524 13.7177 184.259 12.2962C184.993 10.8509 185.988 9.72557 187.244 8.92004C188.523 8.11451 189.933 7.71175 191.473 7.71175C192.894 7.71175 194.197 8.05528 195.382 8.74235C196.567 9.42942 197.455 10.3297 198.047 11.4432V9.23988C198.047 8.93189 198.142 8.67128 198.332 8.45805C198.545 8.24482 198.806 8.1382 199.114 8.1382ZM191.722 24.6634C192.954 24.6634 194.055 24.3435 195.027 23.7039C196.022 23.0405 196.792 22.1402 197.337 21.003C197.905 19.8421 198.19 18.5508 198.19 17.1293C198.19 15.7552 197.905 14.4995 197.337 13.3623C196.792 12.2251 196.022 11.3366 195.027 10.6969C194.055 10.0336 192.954 9.70188 191.722 9.70188C190.49 9.70188 189.376 10.0217 188.381 10.6614C187.41 11.3011 186.64 12.1895 186.071 13.3268C185.526 14.4403 185.254 15.7078 185.254 17.1293C185.254 18.5508 185.526 19.8421 186.071 21.003C186.616 22.1402 187.374 23.0405 188.346 23.7039C189.341 24.3435 190.466 24.6634 191.722 24.6634Z" fill="white"/>
<path d="M214.308 7.71175C216.512 7.71175 218.123 8.36328 219.141 9.66634C220.184 10.9457 220.705 12.6515 220.705 14.7838V25.232C220.705 25.54 220.598 25.8006 220.385 26.0138C220.172 26.2034 219.923 26.2981 219.639 26.2981C219.331 26.2981 219.07 26.2034 218.857 26.0138C218.668 25.8006 218.573 25.54 218.573 25.232V14.8904C218.573 13.3504 218.182 12.1066 217.4 11.1589C216.642 10.1876 215.457 9.70188 213.846 9.70188C212.827 9.70188 211.856 9.9388 210.932 10.4126C210.032 10.8865 209.297 11.5262 208.729 12.3317C208.16 13.1135 207.876 13.9664 207.876 14.8904V25.232C207.876 25.54 207.769 25.8006 207.556 26.0138C207.366 26.2034 207.118 26.2981 206.81 26.2981C206.502 26.2981 206.241 26.2034 206.028 26.0138C205.838 25.8006 205.744 25.54 205.744 25.232V9.31096C205.744 9.00296 205.838 8.7542 206.028 8.56466C206.241 8.35143 206.502 8.24482 206.81 8.24482C207.118 8.24482 207.366 8.35143 207.556 8.56466C207.769 8.7542 207.876 9.00296 207.876 9.31096V11.2655C208.516 10.2468 209.428 9.40573 210.612 8.74235C211.821 8.05528 213.053 7.71175 214.308 7.71175Z" fill="white"/>
<path d="M241.037 0C241.345 0 241.594 0.106614 241.784 0.319842C241.997 0.509377 242.103 0.758143 242.103 1.06614V25.232C242.103 25.54 241.997 25.8006 241.784 26.0138C241.594 26.2034 241.345 26.2981 241.037 26.2981C240.729 26.2981 240.469 26.2034 240.255 26.0138C240.066 25.8006 239.971 25.54 239.971 25.232V22.7443C239.379 23.8342 238.49 24.7581 237.306 25.5163C236.145 26.2744 234.854 26.6535 233.432 26.6535C231.868 26.6535 230.447 26.2507 229.168 25.4452C227.912 24.616 226.917 23.4788 226.182 22.0336C225.448 20.5884 225.081 18.9655 225.081 17.1649C225.081 15.388 225.448 13.7769 226.182 12.3317C226.917 10.8865 227.912 9.76111 229.168 8.95558C230.447 8.12636 231.857 7.71175 233.397 7.71175C234.794 7.71175 236.086 8.06713 237.27 8.77789C238.455 9.46496 239.355 10.3653 239.971 11.4788V1.06614C239.971 0.758143 240.066 0.509377 240.255 0.319842C240.469 0.106614 240.729 0 241.037 0ZM233.645 24.6634C234.877 24.6634 235.979 24.3435 236.95 23.7039C237.945 23.0642 238.715 22.1757 239.26 21.0385C239.829 19.8776 240.113 18.5864 240.113 17.1649C240.113 15.767 239.829 14.4995 239.26 13.3623C238.715 12.2251 237.945 11.3366 236.95 10.6969C235.979 10.0336 234.877 9.70188 233.645 9.70188C232.413 9.70188 231.3 10.0336 230.305 10.6969C229.333 11.3366 228.563 12.2251 227.995 13.3623C227.45 14.4995 227.177 15.767 227.177 17.1649C227.177 18.5864 227.45 19.8657 227.995 21.003C228.563 22.1402 229.333 23.0405 230.305 23.7039C231.3 24.3435 232.413 24.6634 233.645 24.6634Z" fill="white"/>
<path d="M3.46185 15.797C3.46185 15.7391 3.46039 15.6812 3.45748 15.6233C3.44294 15.3345 3.48454 14.5358 3.77247 13.5885C4.05444 12.6607 4.51506 11.7787 5.19057 11.1078C6.27495 10.0308 7.55529 8.7891 8.74916 7.6424C9.44618 8.27701 10.3914 8.75286 11.57 8.81818C15.0492 9.29513 17.6985 12.2572 17.6985 15.797C17.6985 19.6661 14.5339 22.843 10.5802 22.843H10.1185C9.54261 22.843 8.39092 23.1885 8.39092 24.5706C8.39092 25.1464 8.73643 26.2981 10.1185 26.2981H10.5802C16.4197 26.2981 21.1536 21.5966 21.1536 15.797C21.1536 10.4239 17.0903 5.9933 11.849 5.37077C11.6213 5.37077 11.432 5.31895 11.2752 5.23276C11.1612 5.17014 11.0645 5.08936 10.9828 4.99712C10.6755 4.65028 10.5802 4.14135 10.5802 3.82578V2.14561C10.5802 1.30552 10.0163 1.65556 9.7343 1.93559C9.66502 2.00077 9.59058 2.07089 9.51136 2.14561C9.05582 2.57522 8.44238 3.15642 7.74561 3.82068L7.74025 3.82578C7.55088 4.00632 7.35537 4.19298 7.15523 4.38438C5.74489 5.73306 4.10417 7.31719 2.75585 8.65628C0.387405 11.0085 -0.0637275 14.3969 0.00676358 15.797C0.00676358 16.7692 0.139767 17.7104 0.388687 18.6039C0.505916 19.0298 0.987165 19.8815 1.97433 19.8815C2.56817 19.8815 3.70187 19.6347 3.77247 18.1154C3.76604 18.0164 3.74291 17.7778 3.70187 17.616C3.54524 17.035 3.46185 16.4251 3.46185 15.797Z" fill="#E53654"/>
<path d="M5.08391 24.4225C6.038 24.4225 6.81145 23.6491 6.81145 22.695C6.81145 21.7409 6.038 20.9674 5.08391 20.9674C4.12981 20.9674 3.35636 21.7409 3.35636 22.695C3.35636 23.6491 4.12981 24.4225 5.08391 24.4225Z" fill="#E53654"/>
<path d="M35.4607 15.8219C35.4607 15.8799 35.4622 15.9378 35.4651 15.9957C35.4797 16.2844 35.4381 17.0832 35.1501 18.0305C34.8681 18.9582 34.4075 19.8403 33.732 20.5112C32.6476 21.5882 31.3673 22.8299 30.1734 23.9766C29.4764 23.342 28.5312 22.8661 27.3526 22.8008C23.8734 22.3238 21.2241 19.3617 21.2241 15.8219C21.2241 11.9528 24.3887 8.77592 28.3424 8.77592H28.8041C29.38 8.77592 30.5317 8.43041 30.5317 7.04838C30.5317 6.47253 30.1862 5.32084 28.8041 5.32084H28.3424C22.5029 5.32084 17.769 10.0223 17.769 15.8219C17.769 21.1951 21.8323 25.6257 27.0736 26.2482C27.3013 26.2482 27.4906 26.3 27.6474 26.3862C27.7614 26.4488 27.8581 26.5296 27.9398 26.6218C28.2471 26.9687 28.3424 27.4776 28.3424 27.7932V29.4734C28.3424 30.3134 28.9063 29.9634 29.1883 29.6834C29.2576 29.6182 29.332 29.5481 29.4112 29.4734C29.8668 29.0437 30.4802 28.4625 31.177 27.7983L31.1823 27.7932C31.3717 27.6126 31.5672 27.426 31.7674 27.2346C33.1777 25.8859 34.8184 24.3018 36.1667 22.9627C38.5352 20.6104 38.9863 17.2221 38.9158 15.8219C38.9158 14.8498 38.7828 13.9085 38.5339 13.0151C38.4167 12.5892 37.9354 11.7374 36.9483 11.7374C36.3544 11.7374 35.2207 11.9842 35.1501 13.5035C35.1566 13.6026 35.1797 13.8411 35.2207 14.003C35.3773 14.584 35.4607 15.1938 35.4607 15.8219Z" fill="#5AD5A1"/>
<path d="M33.8387 7.19645C32.8846 7.19645 32.1111 7.9699 32.1111 8.92399C32.1111 9.87809 32.8846 10.6515 33.8387 10.6515C34.7928 10.6515 35.5662 9.87809 35.5662 8.92399C35.5662 7.9699 34.7928 7.19645 33.8387 7.19645Z" fill="#5AD5A1"/>
<path d="M15.7947 15.6445L10.4314 19.7701C9.67513 20.3518 8.5905 20.2104 8.00877 19.4541C7.42705 18.6979 7.56852 17.6132 8.32476 17.0315L14.7119 12.1183C14.8197 12.0315 14.9362 11.9592 15.0585 11.9017C15.5189 11.6854 16.0619 11.6792 16.534 11.9032C16.6551 11.9604 16.7704 12.0322 16.8772 12.1182L22.2112 16.2213L27.5745 12.0957C28.3308 11.514 29.4154 11.6554 29.9971 12.4117C30.5788 13.1679 30.4374 14.2525 29.6811 14.8343L23.2941 19.7473C23.1863 19.8342 23.0696 19.9066 22.9471 19.9642C22.713 20.0747 22.4614 20.1286 22.2112 20.1284C21.9611 20.1286 21.7095 20.0747 21.4753 19.9642C21.3528 19.9066 21.2362 19.8342 21.1283 19.7473L15.7947 15.6445Z" fill="white"/>
</svg>
